<svg xmlns="http://www.w3.org/2000/svg" xmlns:xlink="http://www.w3.org/1999/xlink" width="500" height="500" viewBox="0 0 500 500"><defs><style>.a{clip-path:url(#ai);}.b{fill:url(#a);}.c{fill:url(#b);}.aa,.ae,.an,.as,.d,.f,.s{fill:none;stroke-miterlimit:10;}.d,.f,.s{stroke:#707070;}.d{stroke-width:0.73px;}.e{fill:url(#c);}.f{stroke-width:2.1px;}.g{fill:url(#d);}.h{fill:url(#e);}.i{fill:url(#f);}.j{fill:url(#g);}.k{fill:url(#h);}.l{fill:url(#i);}.m{fill:url(#j);}.n{fill:url(#k);}.o{fill:url(#l);}.p{fill:url(#m);}.q{fill:url(#n);}.r{fill:url(#o);}.s{stroke-width:1.22px;}.t{fill:url(#p);}.u{fill:url(#q);}.v{fill:url(#r);}.w{fill:url(#s);}.x{fill:url(#t);}.y{fill:url(#u);}.z{fill:url(#v);}.aa,.ae,.an,.as{stroke:#fff;}.aa{stroke-width:0.54px;}.ab{fill:#1f1844;}.ac{fill:#737cbd;}.ad{fill:#f0eff3;}.ae{stroke-width:6px;}.af{fill:#fff;}.ag{fill:url(#w);}.ah{fill:url(#x);}.ai{fill:url(#y);}.aj{fill:url(#z);}.ak{fill:url(#aa);}.al{fill:url(#ab);}.am{fill:url(#ac);}.an,.as{stroke-linecap:round;}.an{stroke-width:0.67px;}.ao{fill:url(#ad);}.ap{fill:url(#ae);}.aq{fill:url(#af);}.ar{fill:url(#ag);}.as{stroke-width:0.69px;}</style><linearGradient id="a" y1="0.5" x2="1" y2="0.5" gradientUnits="objectBoundingBox"><stop offset="0" stop-color="#f0f2f5"/><stop offset="0.99" stop-color="#f5f7f8"/></linearGradient><linearGradient id="b" x1="0.607" y1="0.993" x2="0.357" y2="0.043" gradientUnits="objectBoundingBox"><stop offset="0" stop-color="#1f1844"/><stop offset="0.99" stop-color="#3d3c99"/></linearGradient><linearGradient id="c" x1="-0.037" y1="0.568" x2="0.94" y2="0.428" gradientUnits="objectBoundingBox"><stop offset="0.01" stop-color="#bbc0d9"/><stop offset="1" stop-color="#d6dbf8"/></linearGradient><linearGradient id="d" x1="0.981" y1="0.964" x2="0.029" y2="0.05" xlink:href="#b"/><linearGradient id="e" x1="1.017" y1="0.864" x2="0.071" y2="0.195" xlink:href="#b"/><linearGradient id="f" x1="0.041" y1="0.922" x2="0.969" y2="0.066" xlink:href="#b"/><linearGradient id="g" x1="0.036" y1="0.881" x2="0.983" y2="0.089" xlink:href="#b"/><linearGradient id="h" x1="1.001" y1="0.683" x2="-0.005" y2="0.308" xlink:href="#b"/><linearGradient id="i" x1="0.062" y1="0.869" x2="0.997" y2="0.07" xlink:href="#b"/><linearGradient id="j" x1="0.786" y1="0.026" x2="0.221" y2="0.971" gradientUnits="objectBoundingBox"><stop offset="0.01" stop-color="#3d3c99"/><stop offset="1" stop-color="#1f1844"/></linearGradient><linearGradient id="k" x1="0.268" y1="0.731" x2="0.55" y2="0.452" gradientUnits="objectBoundingBox"><stop offset="0" stop-color="#e0e4eb"/><stop offset="0.99" stop-color="#f3f6fd"/></linearGradient><linearGradient id="l" x1="0.41" y1="1.045" x2="0.516" y2="0.375" xlink:href="#k"/><linearGradient id="m" x1="0.092" y1="0.142" x2="0.326" y2="0.481" xlink:href="#k"/><linearGradient id="n" x1="-0.064" y1="0.926" x2="0.809" y2="0.052" xlink:href="#c"/><linearGradient id="o" x1="0.338" y1="0.407" x2="0.537" y2="1.013" xlink:href="#k"/><linearGradient id="p" x1="0.383" y1="1.234" x2="0.396" y2="0.289" xlink:href="#k"/><linearGradient id="q" x1="-0.031" y1="0.821" x2="0.766" y2="0.004" xlink:href="#c"/><linearGradient id="r" x1="0.5" y1="0.603" x2="0.668" y2="1.233" xlink:href="#k"/><linearGradient id="s" x1="0.786" y1="0.026" x2="0.221" y2="0.971" gradientUnits="objectBoundingBox"><stop offset="0" stop-color="#e6eaf1"/><stop offset="0.99" stop-color="#f3f6fd"/></linearGradient><linearGradient id="t" x1="0.104" y1="0.57" x2="0.955" y2="0.345" gradientUnits="objectBoundingBox"><stop offset="0.11" stop-color="#8988d5"/><stop offset="0.56" stop-color="#9d9ce8"/><stop offset="1" stop-color="#a7a5ee"/></linearGradient><linearGradient id="u" x1="0.426" y1="0.996" x2="0.568" y2="0.037" gradientUnits="objectBoundingBox"><stop offset="0" stop-color="#753200"/><stop offset="1" stop-color="#a04400"/></linearGradient><linearGradient id="v" x1="-0.001" y1="0.499" x2="1" y2="0.499" gradientUnits="objectBoundingBox"><stop offset="0" stop-color="#a7a5ee"/><stop offset="0.44" stop-color="#9d9ce8"/><stop offset="0.89" stop-color="#8988d5"/></linearGradient><linearGradient id="w" x1="0.969" y1="0.712" x2="0.069" y2="0.343" xlink:href="#u"/><linearGradient id="x" x1="0" y1="0.5" x2="1" y2="0.5" xlink:href="#v"/><linearGradient id="y" x1="0.119" y1="0.297" x2="0.762" y2="0.539" xlink:href="#u"/><linearGradient id="z" x1="-0.44" y1="0.575" x2="0.472" y2="0.497" xlink:href="#u"/><linearGradient id="aa" x1="0.295" y1="0.548" x2="0.99" y2="0.387" gradientUnits="objectBoundingBox"><stop offset="0" stop-color="#a04400" stop-opacity="0"/><stop offset="0.18" stop-color="#9a4100" stop-opacity="0.141"/><stop offset="0.52" stop-color="#8a3b00" stop-opacity="0.522"/><stop offset="0.9" stop-color="#753200"/></linearGradient><linearGradient id="ab" x1="0.957" y1="0.26" x2="0.048" y2="0.979" gradientUnits="objectBoundingBox"><stop offset="0" stop-color="#a04400"/><stop offset="1" stop-color="#753200"/></linearGradient><linearGradient id="ac" x1="0.99" y1="0.363" x2="0.052" y2="0.58" xlink:href="#u"/><linearGradient id="ad" x1="-0.24" y1="1.206" x2="0.323" y2="0.239" gradientUnits="objectBoundingBox"><stop offset="0" stop-color="#9594e0"/><stop offset="0.63" stop-color="#7170b0"/></linearGradient><linearGradient id="ae" x1="0.383" y1="1.01" x2="0.603" y2="0.006" gradientUnits="objectBoundingBox"><stop offset="0" stop-color="#a04400"/><stop offset="0.3" stop-color="#9c4200"/><stop offset="0.62" stop-color="#8e3d00"/><stop offset="0.95" stop-color="#793300"/><stop offset="1" stop-color="#753200"/></linearGradient><linearGradient id="af" x1="0.913" y1="0.806" x2="0.935" y2="-0.195" xlink:href="#ae"/><linearGradient id="ag" x1="0.018" y1="0.517" x2="1.035" y2="0.484" xlink:href="#v"/><clipPath id="ai"><rect width="500" height="500"/></clipPath></defs><g id="ah" class="a"><rect class="af" width="500" height="500"/><g transform="translate(0 38.615)"><path class="b" d="M481.78,221.036C437.974,131.489,312.688.335,149.9,0-19.98-.35-36.4,168.137,55.156,214.969S12.839,320.16,108.54,378.814c96.871,59.363,303.877,53.79,354.833,7.611S500.7,259.722,481.78,221.036Z" transform="translate(0.465 -0.001)"/><path class="c" d="M37.548,122.67s16.9-18.814,15.127-26.234,8.639-16.417,8.846-27.245c.231-12.229-6.306-8.965-8.567-14.188-3.352-7.755,4.108-14.626-7.166-17.588-7.707-2.03-13.121,1.927-12.42-7.611S30.622,8.474,24.451,4.191C15.63-1.924-2.308-2.4,3.751,9.931c6.369,12.954.748,34.3-.732,40.143C-12.611,111.874,37.548,122.67,37.548,122.67Z" transform="translate(33.312 219.026)"/><path class="d" d="M0,0C1.935,15.924,21.935,41.4,12.866,58.463s4.674,43.392,4.674,43.392" transform="translate(51.967 235.955)"/><path class="e" d="M42.14,61.035c-10.979,3.885.908,18.081-11.1,24.482s-27.4,9.634-28.105,6.529c-.048-.207-.693-2.261-1.377-5.271-.151-.7-.311-1.449-.47-2.237a3.933,3.933,0,0,0-.119-.669A61.2,61.2,0,0,1,.062,76.6v-.223c-.056-.971-.072-1.951-.056-2.914s.072-1.871.167-2.779c.358-3.455,1.346-6.64,3.368-8.925a10.35,10.35,0,0,1,1.752-1.592c8.344-5.8,11.672-2.986,11.616-11.561-.119-14.689,4.068-16.887,9-15.438s8.758,1.855,9.49-3.575S31.678-.048,42.856,0c19.379.064,9.554,24.793,7.627,28.806-4.7,9.618,5.072,11.146,7.389,18.137S53.111,57.158,42.14,61.035Z" transform="translate(79.907 245.032)"/><path class="f" d="M.146,99.952s-2.946-27.07,17.667-42.2C27.128,50.908,44.445,26.449,42.876,0" transform="translate(80.547 258.24)"/><path class="g" d="M.237.676C2.8-3.671,21.208,14.211,17.984,18.192S-2.191,4.808.237.676Z" transform="translate(51.554 282.286)"/><path class="h" d="M0,1.712C.371-3.344,22.592,3.926,21.453,8.926S-.346,6.529,0,1.712Z" transform="translate(47.145 305.676)"/><path class="i" d="M19.393.363C23.374,3.452,3.9,20.188.428,16.477S15.643-2.535,19.393.363Z" transform="translate(69.708 284.669)"/><path class="j" d="M18.572.87C21.884,4.612,3.118,14.015.3,9.78S15.419-2.689,18.572.87Z" transform="translate(68.491 305.284)"/><path class="k" d="M.028,2.412C-.943-2.23,23.555.445,23.77,5.222S.952,6.839.028,2.412Z" transform="translate(48.594 323.153)"/><path class="l" d="M17.228.973C19.767,5.272,2.22,15.989.173,11.323S14.815-3.1,17.228.973Z" transform="translate(68.64 319.186)"/><path class="m" d="M8.113,0c4.944.358-1.449,25.279-6.369,24.124S3.4-.339,8.113,0Z" transform="translate(68.073 262.074)"/><path class="n" d="M.238.674C2.8-3.665,21.21,14.209,17.993,18.19S-2.2,4.814.238.674Z" transform="translate(53.408 281.101)"/><path class="o" d="M0,1.716C.371-3.348,22.592,3.929,21.454,8.921S-.354,6.532,0,1.716Z" transform="translate(48.626 304.638)"/><path class="p" d="M19.383.365C23.364,3.446,3.89,20.189.426,16.479S15.633-2.542,19.383.365Z" transform="translate(70.466 283.592)"/><path class="q" d="M0,9.034C.342,5.642,1.29,2.513,3.232.276c2.389-.47,4.323-.382,5.183.589C10.287,2.943,5.271,6.773,0,9.034Z" transform="translate(80.478 305.719)"/><path class="r" d="M18.617.874C21.921,4.608,3.155,14.011.3,9.775S15.464-2.693,18.617.874Z" transform="translate(69.377 304.493)"/><path class="s" d="M1.531,0A146.11,146.11,0,0,1,.377,24.244c-1.72,11.3,2.611,30.414,9.65,36.529" transform="translate(69.639 280.326)"/><path class="t" d="M.028,2.414C-.943-2.228,23.555.439,23.77,5.224S.952,6.833.028,2.414Z" transform="translate(48.594 322.268)"/><path class="u" d="M.987,10.442a3.3,3.3,0,0,0-.119-.661A60.725,60.725,0,0,1,0,2.615V2.392C3.981.179,8.272-.936,9.4.983,10.812,3.42,5.916,7.846.987,10.442Z" transform="translate(80.382 317.918)"/><path class="v" d="M17.226.978C19.766,5.27,2.21,15.994.172,11.329S14.806-3.114,17.226.978Z" transform="translate(71.643 316.116)"/><path class="w" d="M8.109,0C13.054.362,6.652,25.275,1.74,24.128S3.4-.346,8.109,0Z" transform="translate(69.279 261.748)"/><path class="x" d="M32.622,43.5H17.391A13.71,13.71,0,0,1,3.808,31.616L.026,3.591A3.185,3.185,0,0,1,3.163,0H46.849a3.185,3.185,0,0,1,3.137,3.591L46.212,31.616A13.726,13.726,0,0,1,32.622,43.5Z" transform="translate(49.011 337.811)"/><path class="y" d="M1.139,0,0,7.994l2.707,7.42,2.452,1.377,8.049-4.451,1.409-3.734L11.7.939,1.139,0Z" transform="translate(214.419 346.21)"/><path class="z" d="M22.259.093s4.2,5.725,3.925,8.288,7.412-.1,8.113-4.347,2.5-2.11,3.065.263,2.452,2.389,2.826,4.061a6.454,6.454,0,0,1-3.312,7.795c-4.355,2.524-9.084,1.465-12.572,3.185S17.052,27.1,13.318,27.6,3.469,27.744.579,22.027s5.868-8.806,8.1-9.554,6.369-5.828,8.1-7.962S20.093-.56,22.259.093Z" transform="translate(192.08 350.226)"/><path class="aa" d="M33.861,0s2.341,3.185-1.5,6.131S22.532,9,19.18,12.627,13.24,19.793,7.3,19.753,0,18.081,0,18.081" transform="translate(194.944 355.096)"/><rect class="ab" width="170.645" height="353.392" rx="16.49" transform="translate(254.061 26.775)"/><rect class="ac" width="150.589" height="324.379" rx="12.18" transform="translate(264.092 41.282)"/><path class="ab" d="M0,0H73.065A15.279,15.279,0,0,1,57.818,15.279H15.279A15.279,15.279,0,0,1,0,0H0Z" transform="translate(302.85 36.17)"/><path class="ab" d="M22.683,4.769l-.8,35.032a10.446,10.446,0,0,1-.2,2.054l-2.524,8.2a16.839,16.839,0,0,1-6.369,1.592c-3.089,0-7.07-1.935-7.07-1.935L3.336,42.986a10.271,10.271,0,0,1-.342-2.142L0,0Z" transform="translate(208.209 297.444)"/><rect class="ad" width="42.659" height="13.439" rx="4.2" transform="translate(362.293 60.263)"/><rect class="ad" width="50.303" height="14.339" rx="4.2" transform="translate(275.621 86.314)"/><rect class="ad" width="42.022" height="5.127" rx="2.564" transform="translate(279.761 64.419)"/><rect class="ad" width="119.068" height="179.475" rx="7.07" transform="translate(279.849 109.116)"/><rect class="ad" width="119.068" height="31.76" rx="7.07" transform="translate(279.849 305.143)"/><circle class="ae" cx="43.615" cy="43.615" r="43.615" transform="translate(295.772 123.057)"/><rect class="af" width="95.533" height="23.24" rx="7.41" transform="translate(291.616 223.209)"/><rect class="af" width="95.533" height="23.24" rx="7.41" transform="translate(291.616 256.003)"/><path class="ag" d="M3.615,0A80.2,80.2,0,0,1,0,10.605S8.615,16.7,9.443,17.4c.693-2.771,8.463-2.452,9.355-4.777s-5.04-7.412-4.777-10.263C11.584,2.444,5.032.573,3.615,0Z" transform="translate(236.943 288.758)"/><path class="ab" d="M65.634,94.857,11.987,83.6A14.667,14.667,0,0,1,.642,64.889L20.9,11.227,25.212.144S66.868-1.648,69.464,7.421c3.981,13.742,1,33.487-.8,40.382-3.081,11.879-3.5,26.41-3.5,26.41l4.49,1.823a7.19,7.19,0,0,1,1.736.661l4.379,3.813-3.049,13.7-5.287.716a5.254,5.254,0,0,1-1.8-.071Z" transform="translate(167.192 208.2)"/><path class="ah" d="M65.422,117.246l-10.661-3.5L65.653,69.626s.8-16.831-.231-24.881c-3.543,28.861-6.035,48.5-6.035,48.5s-3.4.072-7.611.1c-6.059,0-15.04-.35-22.787-2.389-7.962-2.1-16.935-4.642-16.935-4.642l-2.5,10.2L0,99.427S5.637,19.419,23.75,4.953C29.777.175,40.47-.891,45.167.669S73.161,7.835,77.755,13.711c7.269,9.26,3.344,50.159,2.428,58.678a13.909,13.909,0,0,1-.653,3.01Z" transform="translate(179.395 126.696)"/><path class="ai" d="M1.9,5.866C2.914,4.664,4.674,1.129,5.374.078,3.432-.432.685,1.67,0,3.326.51,3.461,1.529,5.293,1.9,5.866Z" transform="translate(247.014 101.443)"/><path class="aj" d="M15.549,52.366a7.166,7.166,0,0,1-5.685-6.529,10.446,10.446,0,0,1,.43-2.675l.231-.947.2-.876.247-1.075a13.066,13.066,0,0,1-1.449-.494c-3.718-1.5-9.164-5.5-9.506-12.2C-.224,22.9,2.4,19.316,3.1,16.777s.111-4.618.382-7.588c.342-3.806,2.986-8,5.064-8.615C17.889-2.22,31.377,6.092,31.377,6.092s4.347,3.439-.239,13.169c.6-.207-.963,1.7-.239,1.736a4.49,4.49,0,0,1,3.36,1.521c1.481,1.9.605,5.382-4.26,9.236a1.378,1.378,0,0,1-.167.135,23.511,23.511,0,0,0-.924,2.866,2.179,2.179,0,0,1-.127.454c-.47,1.791-1.091,4.108-1.68,6.369-.852,3.24-1.457,6.059-1.712,7.166C24.761,51.339,21.122,53.64,15.549,52.366Z" transform="translate(214.547 82.985)"/><path class="ak" d="M25.518,19.261c4.578-9.729.231-13.169.231-13.169S12.261-2.22,2.914.574C1.449,1,.725,2.963,0,4.555,3.9,2.812,10.159,5.574,15.279,7.079c2.444.725.645,3.073,1.306,3.376,5.732.446,8.607,4.148,5.573,11.616l3.025-1.083C24.658,20.829,26.083,19.062,25.518,19.261Z" transform="translate(220.167 82.961)"/><path class="ab" d="M33.288,26.262a25.478,25.478,0,0,0,1.656-6.417c.987-5.9-1.7-9.65-6.959-13l-5.143-2.85c-.47-.263-9.26-4.65-14.5-3.909C6.377.363,3.368,1.772,2.771,3.269,1.25,7.146.318,9.176,0,12.473c5.1-7.166,5.494,3.83,18.678-.143,2.444-.732.653,3.073,1.306,3.376,6.465.51,9.307,5.143,4.156,14.674,1.847-.263,3.185-.8,4.124-.533C29.976,28.93,32.874,27.154,33.288,26.262Z" transform="translate(219.554 74.757)"/><path class="al" d="M19.26,3.455A23.336,23.336,0,0,1,1,10.462l.2-.876.247-1.075A13.065,13.065,0,0,1,0,8.018C3.925,6.72,14.889,2.978,20.478,0a1.377,1.377,0,0,1-.167.135A23.511,23.511,0,0,0,19.387,3C19.347,3.121,19.3,3.3,19.26,3.455Z" transform="translate(224.061 114.713)"/><path class="ab" d="M30.678,2.412c.255-.127,1.011-.4,1.011-.4L32.024,0l-3.3.661A1.7,1.7,0,0,0,27.406,1.9L25.59,8.79C21.084,9.514,10.28,12.476,8.624,12.1c-2.1-.478-1.744-3.185-3.041-3.073S3.831,10.7,3.1,10.4A12.158,12.158,0,0,1,.463,6.242S.025,10.932,0,11.775c-.064,1.959,2.221,6.911,2.221,6.911a1.879,1.879,0,0,0,1.234,1.091l4.873,1.354,2.93-.486c4.021-.533,14.586-4.777,15.024-5.8C28.871,9.013,28.083,3.678,30.678,2.412Z" transform="translate(214.218 102.723)"/><path class="am" d="M0,.64S1.847-.9,2.452.792.908,4.534.908,4.534Z" transform="translate(244.96 106.653)"/><path class="an" d="M0,0A9.96,9.96,0,0,0,7.962,9.554C16,11.4,20.74,4.777,20.74,4.777" transform="translate(221.728 128.264)"/><path class="ao" d="M13.161,0C5.4,4.912,0,50.446,0,50.446l7.962,2.221S8.384,24.419,13.161,0Z" transform="translate(191.457 162.564)"/><path class="ap" d="M5.184,3.28A6.688,6.688,0,0,0,2.6,5.987a10.223,10.223,0,0,0-.8,4.029,11.683,11.683,0,0,1-.939,4.9c-.748,1.314-1.091,1.2-.717,1.879s2.293.8,3.041-.231,1.967-2.818,1.967-2.818a15.056,15.056,0,0,0,.924,2.54c.549,1.146-.143,4.4-.844,5.462-1.473,2.229-3.025,4.928-2.834,5.963s2.261-.271,2.261-.271S9.715,23.7,10.853,21.3a12.812,12.812,0,0,0,1.768-6.139c-.08-2.691-.127-8.646-.127-8.646L13.52,2.245,6.641,0S5.543,3.121,5.184,3.28Z" transform="translate(229.027 240.971)"/><path class="aq" d="M8.809,3.726a6.728,6.728,0,0,1,2.269,2.986A10.35,10.35,0,0,1,11.4,10.8a11.728,11.728,0,0,0,.39,4.976c.6,1.393.947,1.314.494,1.943S9.9,18.24,9.295,17.15s-1.632-3.018-1.632-3.018a15.334,15.334,0,0,1-1.21,2.389c-.677,1.083-.35,4.387.231,5.525,1.218,2.389,2.452,5.239,2.15,6.242s-2.221-.525-2.221-.525S2.018,23.5,1.158,20.971a12.614,12.614,0,0,1-1.067-6.3c.39-2.667,1.091-8.559,1.091-8.559L.624,1.847S5,.788,7.336,0C8.148.955,8.475,3.551,8.809,3.726Z" transform="translate(180.618 223.185)"/><path class="ar" d="M9.057,33.041s-.462,5.334.51,7.221A3.938,3.938,0,0,0,13.683,42.4c1.576-.064,3.615-2.03,5.159-8.758a196.131,196.131,0,0,0,3.32-20.916A36.863,36.863,0,0,0,21.9,3.885,3.981,3.981,0,0,0,18.4.7,11.7,11.7,0,0,1,16.47.31c-1.17-.382-2.428,0-3.384-.223S5.856-.048,5.172,1.8,10.18,5.78,10.259,9.713s-4.713,5-4.713,5S3.611,13.12,2.56,14.235s-2.15.135-2.516.979S1.7,18.622,1.7,18.622s4.857,8.455,6.8,11.768A9.936,9.936,0,0,1,9.057,33.041Z" transform="translate(238.602 287.023)"/><path class="as" d="M0,38.424C5.048,26.059,3.424,12.715,3.424,12.715,3.806,8.869,5.812,4.809,2.309.4L2.03,0" transform="translate(253.256 288.487)"/></g></g></svg>