<svg id="Layer_1" data-name="Layer 1" xmlns="http://www.w3.org/2000/svg" xmlns:xlink="http://www.w3.org/1999/xlink" viewBox="0 0 391.13 410.15"><defs><clipPath id="clip-path" transform="translate(-3.83 -47.11)"><rect width="395" height="500" style="fill:none"/></clipPath><linearGradient id="linear-gradient" x1="-853.52" y1="39.76" x2="-852.52" y2="39.76" gradientTransform="translate(333807.88 -16052.05) scale(391.09 410.03)" gradientUnits="userSpaceOnUse"><stop offset="0" stop-color="#f0f2f5"/><stop offset="0.99" stop-color="#f5f7f8"/><stop offset="1" stop-color="#f5f7f8"/></linearGradient><linearGradient id="linear-gradient-2" x1="-956.4" y1="263.65" x2="-956.26" y2="262.7" gradientTransform="translate(14086.42 -4025.46) scale(14.62 16.79)" gradientUnits="userSpaceOnUse"><stop offset="0" stop-color="#411d03"/><stop offset="1" stop-color="#7b3b0c"/></linearGradient><linearGradient id="linear-gradient-3" x1="-970.87" y1="262.81" x2="-971.77" y2="262.45" gradientTransform="translate(18480.51 -4233.23) scale(18.89 17.4)" xlink:href="#linear-gradient-2"/><linearGradient id="linear-gradient-4" x1="-832.05" y1="48.7" x2="-831.05" y2="48.7" gradientTransform="translate(33779.67 -949.18) scale(40.5 27.76)" gradientUnits="userSpaceOnUse"><stop offset="0" stop-color="#28949c"/><stop offset="0.44" stop-color="#2b979f"/><stop offset="0.89" stop-color="#157178"/><stop offset="1" stop-color="#0b575d"/></linearGradient><linearGradient id="linear-gradient-5" x1="-812.51" y1="45.4" x2="-811.49" y2="45.37" gradientTransform="translate(18255.04 -1579.38) scale(22.31 42.44)" xlink:href="#linear-gradient-4"/><linearGradient id="linear-gradient-6" x1="-1023.57" y1="168.08" x2="-1022.57" y2="168.08" gradientTransform="translate(84062.82 -19482.71) scale(82.06 117.25)" xlink:href="#linear-gradient-4"/><linearGradient id="linear-gradient-7" x1="-961.63" y1="171.74" x2="-961.07" y2="170.78" gradientTransform="translate(12734.29 -8771.26) scale(13.16 52.67)" xlink:href="#linear-gradient-4"/><linearGradient id="linear-gradient-8" x1="-889.6" y1="159.02" x2="-888.96" y2="159.26" gradientTransform="translate(4914.37 -790.96) scale(5.37 5.87)" xlink:href="#linear-gradient-2"/><linearGradient id="linear-gradient-9" x1="-1042.87" y1="118.99" x2="-1041.96" y2="118.91" gradientTransform="translate(36493.69 -6122.26) scale(34.91 52.73)" xlink:href="#linear-gradient-2"/><linearGradient id="linear-gradient-10" x1="-1021.89" y1="138.93" x2="-1022.8" y2="139.65" gradientTransform="translate(21055.98 -1304.55) scale(20.48 10.51)" gradientUnits="userSpaceOnUse"><stop offset="0" stop-color="#652e05"/><stop offset="1" stop-color="#461e00"/></linearGradient><linearGradient id="linear-gradient-11" x1="-1034.8" y1="125.97" x2="-1034.1" y2="125.81" gradientTransform="translate(28689.51 -2646.67) scale(27.61 22.07)" gradientUnits="userSpaceOnUse"><stop offset="0" stop-color="#a04400" stop-opacity="0"/><stop offset="0.18" stop-color="#9a4100" stop-opacity="0.14"/><stop offset="0.52" stop-color="#8a3b00" stop-opacity="0.52"/><stop offset="0.9" stop-color="#753200"/></linearGradient><linearGradient id="linear-gradient-12" x1="-690.23" y1="172.38" x2="-691.17" y2="172.59" gradientTransform="translate(1900.06 -634.91) scale(2.56 4.54)" xlink:href="#linear-gradient-2"/><linearGradient id="linear-gradient-13" x1="-783.92" y1="49.09" x2="-783.7" y2="48.08" gradientTransform="translate(10725.32 -1071.87) scale(13.53 28.11)" gradientUnits="userSpaceOnUse"><stop offset="0" stop-color="#a04400"/><stop offset="0.3" stop-color="#9c4200"/><stop offset="0.62" stop-color="#8e3d00"/><stop offset="0.95" stop-color="#793300"/><stop offset="1" stop-color="#753200"/></linearGradient><linearGradient id="linear-gradient-14" x1="72.67" y1="284.69" x2="73.3" y2="256" gradientTransform="matrix(1, 0, 0, 1, 0, 0)" xlink:href="#linear-gradient-13"/></defs><g style="clip-path:url(#clip-path)"><g id="o"><g id="whole_pic" data-name="whole pic"><path id="Blob" d="M382.7,262.22c-43.8-89.5-106.6-214.7-269.4-215.1C-52,46.82-.4,214.51,75.1,266.31c1.9,1.31,15.6,13.81,18.1,15.11,91.6,46.8-158,77.4-62.3,136.1,96.9,59.4,270.7,46.2,321.7,0S401.6,300.91,382.7,262.22Z" transform="translate(-3.83 -47.11)" style="fill:url(#linear-gradient)"/><path id="Phone_border" data-name="Phone border" d="M156.6,65.42H294.3a16.52,16.52,0,0,1,16.5,16.5V402.31a16.52,16.52,0,0,1-16.5,16.5H156.6a16.52,16.52,0,0,1-16.5-16.5V81.92A16.45,16.45,0,0,1,156.6,65.42Z" transform="translate(-3.83 -47.11)" style="fill:#004445"/><path id="Phone_screen_background" data-name="Phone screen background" d="M162.3,79.92H288.5a12.25,12.25,0,0,1,12.2,12.2v300a12.25,12.25,0,0,1-12.2,12.2H162.3a12.25,12.25,0,0,1-12.2-12.2v-300A12.12,12.12,0,0,1,162.3,79.92Z" transform="translate(-3.83 -47.11)" style="fill:#2c7873"/><path id="Phone_border_top" data-name="Phone border top" d="M188.9,74.82H262a15.28,15.28,0,0,1-15.2,15.3H204.3a15.39,15.39,0,0,1-15.4-15.3Z" transform="translate(-3.83 -47.11)" style="fill:#004445"/><g id="Phone_screen_elements" data-name="Phone screen elements"><path d="M252.5,98.92h34.3a4.23,4.23,0,0,1,4.2,4.2v5a4.22,4.22,0,0,1-4.2,4.19H252.5a4.22,4.22,0,0,1-4.2-4.19v-5A4.16,4.16,0,0,1,252.5,98.92Z" transform="translate(-3.83 -47.11)" style="fill:#f0eff3"/><path d="M165.8,124.92h41.9a4.23,4.23,0,0,1,4.2,4.2V135a4.23,4.23,0,0,1-4.2,4.2H165.8a4.23,4.23,0,0,1-4.2-4.2v-5.9A4.22,4.22,0,0,1,165.8,124.92Z" transform="translate(-3.83 -47.11)" style="fill:#f0eff3"/><path d="M168.3,103h36.9a2.58,2.58,0,0,1,2.6,2.6h0a2.58,2.58,0,0,1-2.6,2.6H168.3a2.58,2.58,0,0,1-2.6-2.6h0A2.72,2.72,0,0,1,168.3,103Z" transform="translate(-3.83 -47.11)" style="fill:#f0eff3"/><path d="M172.9,147.72H277.8a7.12,7.12,0,0,1,7.1,7.09V320.12a7.13,7.13,0,0,1-7.1,7.1H172.9a7.13,7.13,0,0,1-7.1-7.1V154.81A7.13,7.13,0,0,1,172.9,147.72Z" transform="translate(-3.83 -47.11)" style="fill:#f0eff3"/><path d="M172.9,343.72H277.8a7.13,7.13,0,0,1,7.1,7.1v17.6a7.13,7.13,0,0,1-7.1,7.1H172.9a7.13,7.13,0,0,1-7.1-7.1v-17.6A7.12,7.12,0,0,1,172.9,343.72Z" transform="translate(-3.83 -47.11)" style="fill:#f0eff3"/><circle cx="221.57" cy="158.2" r="43.6" style="fill:none;stroke:#fff;stroke-miterlimit:10;stroke-width:6px"/><path d="M185,261.81h80.7a7.39,7.39,0,0,1,7.4,7.4v8.4a7.38,7.38,0,0,1-7.4,7.4H185a7.38,7.38,0,0,1-7.4-7.4v-8.4A7.39,7.39,0,0,1,185,261.81Z" transform="translate(-3.83 -47.11)" style="fill:#fff"/><path d="M185,294.62h80.7a7.37,7.37,0,0,1,7.4,7.39v8.4a7.38,7.38,0,0,1-7.4,7.4H185a7.38,7.38,0,0,1-7.4-7.4V302A7.37,7.37,0,0,1,185,294.62Z" transform="translate(-3.83 -47.11)" style="fill:#fff"/></g><g id="Legs"><path id="Left_ankle" data-name="Left ankle" d="M101.59,384.82l-1.1,8,2.7,7.4,2.5,1.4,8-4.5,1.4-3.7-2.9-7.7Z" transform="translate(-3.83 -47.11)" style="fill:url(#linear-gradient-2)"/><path id="Right_ankle" data-name="Right ankle" d="M126.59,327.42A94.36,94.36,0,0,1,123,338s8.6,6.1,9.4,6.8c.7-2.8,8.5-2.5,9.4-4.8s-5-7.4-4.8-10.3C134.49,329.82,128,327.92,126.59,327.42Z" transform="translate(-3.83 -47.11)" style="fill:url(#linear-gradient-3)"/><path id="Leaning_leg" data-name="Leaning leg" d="M118.79,341.72l-53.6-11.3a14.73,14.73,0,0,1-11.8-17.1,9.36,9.36,0,0,1,.4-1.6L74.09,258l4.3-11.1s41.7-1.8,44.3,7.3c4,13.7,1,33.5-.8,40.4-3.1,11.9-3.5,26.4-3.5,26.4l4.5,1.8a5.09,5.09,0,0,1,1.7.7l4.4,3.8L126,341l-5.3.7a6,6,0,0,1-1.9,0Z" transform="translate(-3.83 -47.11)" style="fill:#004445"/><path id="Standing_leg" data-name="Standing leg" d="M116.89,340.82l-.8,35a14.92,14.92,0,0,1-.2,2.1l-2.5,8.2a17.75,17.75,0,0,1-6.4,1.6c-3.1,0-7.1-1.9-7.1-1.9l-2.4-6.7a7.61,7.61,0,0,1-.3-2.1l-3-40.8Z" transform="translate(-3.83 -47.11)" style="fill:#004445"/></g><g id="Left_Shoe" data-name="Left Shoe"><path id="shoe_left" data-name="shoe left" d="M100.3,388.91s4.2,5.71,3.9,8.3,7.4-.1,8.1-4.3,2.5-2.1,3.1.3,2.5,2.4,2.8,4.1a6.42,6.42,0,0,1-3.3,7.8c-4.4,2.5-9.1,1.5-12.6,3.2s-7.3,7.8-11,8.3-9.8.1-12.7-5.6,5.9-8.8,8.1-9.6,6.4-5.8,8.1-8S98.2,388.32,100.3,388.91Z" transform="translate(-3.83 -47.11)" style="fill:url(#linear-gradient-4)"/><path id="shoe_design_left" data-name="shoe design left" d="M114.8,393.72s2.3,3.2-1.5,6.1-9.8,2.9-13.2,6.5-5.9,7.2-11.9,7.1-7.3-1.7-7.3-1.7" transform="translate(-3.83 -47.11)" style="fill:none;stroke:#fff;stroke-miterlimit:10;stroke-width:0.5400000214576721px"/></g><g id="Right_Shoe" data-name="Right Shoe"><path id="shoe_right" data-name="shoe right" d="M133.7,358.72s-.5,5.29.5,7.2a3.89,3.89,0,0,0,4.1,2.1c1.6-.1,3.6-2,5.2-8.8a185.35,185.35,0,0,0,3.3-20.9,32.47,32.47,0,0,0-.3-8.8,4,4,0,0,0-3.5-3.2,10.62,10.62,0,0,1-1.9-.4c-1.2-.4-2.4,0-3.4-.2s-7.2-.1-7.9,1.7,5,4,5.1,7.9-4.7,5-4.7,5-1.9-1.6-3-.5-2.1.1-2.5,1,1.7,3.4,1.7,3.4l6.8,11.8A25.11,25.11,0,0,1,133.7,358.72Z" transform="translate(-3.83 -47.11)" style="fill:url(#linear-gradient-5)"/><path id="shoe_design_right" data-name="shoe design right" d="M139.3,365.51c5-12.39,3.4-25.7,3.4-25.7.4-3.8,2.4-7.9-1.1-12.3l-.3-.39" transform="translate(-3.83 -47.11)" style="fill:none;stroke:#fff;stroke-linecap:round;stroke-miterlimit:10;stroke-width:0.6899999976158142px"/></g><g id="Shirt"><path id="shirt-2" data-name="shirt" d="M130.8,282.51,120.1,279l10.9-44.1s.8-16.8-.2-24.9c-3.5,28.9-6,48.5-6,48.5s-3.4.1-7.6.1c-6.1,0-15-.3-22.8-2.4-8-2.1-16.9-4.6-16.9-4.6L75,261.81l-9.6,2.9s5.6-80,23.8-94.5c6-4.8,16.7-5.8,21.4-4.3s28,7.2,32.59,13c7.31,9.3,3.31,50.2,2.41,58.7a11.25,11.25,0,0,1-.7,3Z" transform="translate(-3.83 -47.11)" style="fill:url(#linear-gradient-6)"/><path id="shirt_collar" data-name="shirt collar" d="M107.7,166.91a10,10,0,0,0,8,9.6c8,1.8,12.8-4.8,12.8-4.8" transform="translate(-3.83 -47.11)" style="fill:none;stroke:#fff;stroke-linecap:round;stroke-miterlimit:10;stroke-width:0.6700000166893005px"/><path id="Arm_shadow" data-name="Arm shadow" d="M90.6,201.21c-7.8,4.9-13.2,50.4-13.2,50.4l8,2.2S85.8,225.61,90.6,201.21Z" transform="translate(-3.83 -47.11)" style="fill:url(#linear-gradient-7)"/></g><g id="Head"><path id="Back_of_head" data-name="Back of head" d="M134.92,146c1-1.2,2.8-4.7,3.5-5.8-1.9-.5-4.7,1.6-5.4,3.2C133.52,143.47,134.52,145.37,134.92,146Z" transform="translate(-3.83 -47.11)" style="fill:url(#linear-gradient-8)"/><path id="Face_and_neck" data-name="Face and neck" d="M116.12,174a7.22,7.22,0,0,1-5.7-6.5,12.59,12.59,0,0,1,.4-2.7l.2-.9.2-.9.2-1.1a5.78,5.78,0,0,1-1.4-.5c-3.7-1.5-9.2-5.5-9.5-12.2-.2-4.7,2.4-8.3,3.1-10.8s.1-4.6.4-7.6c.3-3.8,3-8,5.1-8.6,9.3-2.8,22.8,5.5,22.8,5.5s4.3,3.4-.2,13.2c.6-.2-1,1.7-.2,1.7a4.86,4.86,0,0,1,3.4,1.5c1.5,1.9.6,5.4-4.3,9.2-.1,0-.1.1-.2.1a14,14,0,0,0-.9,2.9c0,.2-.1.3-.1.5-.5,1.8-1.1,4.1-1.7,6.4-.9,3.2-1.5,6.1-1.8,7.2C125.32,173,121.72,175.27,116.12,174Z" transform="translate(-3.83 -47.11)" style="fill:url(#linear-gradient-9)"/><path id="Neck_shadow" data-name="Neck shadow" d="M129.32,156.77a23.17,23.17,0,0,1-18.3,7l.2-.9.2-1.1a5.78,5.78,0,0,1-1.4-.5c3.9-1.3,14.9-5,20.5-8-.1,0-.1.1-.2.1l-.9,3C129.42,156.47,129.32,156.67,129.32,156.77Z" transform="translate(-3.83 -47.11)" style="fill:url(#linear-gradient-10)"/><path id="Hairline_highlight" data-name="Hairline highlight" d="M131.72,140.87c4.6-9.7.2-13.2.2-13.2s-13.5-8.3-22.8-5.5c-1.5.4-2.2,2.4-2.9,4,3.9-1.7,10.2,1,15.3,2.5,2.4.7.6,3.1,1.3,3.4,5.7.4,8.6,4.1,5.6,11.6l3-1.1C130.82,142.37,132.22,140.67,131.72,140.87Z" transform="translate(-3.83 -47.11)" style="fill:url(#linear-gradient-11)"/><path id="Ear" d="M130.92,145.87s1.8-1.5,2.5.2-1.5,3.7-1.5,3.7Z" transform="translate(-3.83 -47.11)" style="fill:url(#linear-gradient-12)"/><path id="Hair" d="M138.82,139.67a28.82,28.82,0,0,0,1.7-6.4c1-5.9-1.7-9.7-7-13l-5.1-2.9c-.5-.3-9.3-4.7-14.5-3.9-2,.3-5,1.7-5.6,3.2-1.5,3.9-2.5,5.9-2.8,9.2,5.1-7.2,5.5,3.8,18.7-.1,2.4-.7.7,3.1,1.3,3.4,6.5.5,9.3,5.1,4.2,14.7,1.8-.3,3.2-.8,4.1-.5C135.52,142.27,138.42,140.57,138.82,139.67Z" transform="translate(-3.83 -47.11)" style="fill:#004445"/><path id="Beard" d="M130.92,143.77c.3-.1,1-.4,1-.4l.3-2-3.3.7a1.61,1.61,0,0,0-1.3,1.2l-1.8,6.9c-4.5.7-15.3,3.7-17,3.3-2.1-.5-1.7-3.2-3-3.1s-1.8,1.7-2.5,1.4a10.25,10.25,0,0,1-2.6-4.2s-.4,4.7-.5,5.5c-.1,2,2.2,6.9,2.2,6.9a2.16,2.16,0,0,0,1.2,1.1l4.9,1.4,2.9-.5c4-.5,14.6-4.8,15-5.8C129.12,150.37,128.32,145,130.92,143.77Z" transform="translate(-3.83 -47.11)" style="fill:#004445"/></g><path id="Left_hand" data-name="Left hand" d="M120.2,282.92a6.76,6.76,0,0,0-2.6,2.7,11,11,0,0,0-.8,4,13.31,13.31,0,0,1-.9,4.89c-.7,1.3-1.1,1.21-.7,1.9s2.3.8,3-.2,2-2.8,2-2.8a10.64,10.64,0,0,0,.9,2.5c.5,1.1-.1,4.4-.8,5.5-1.5,2.21-3,4.9-2.8,6s2.3-.29,2.3-.29,5.1-3.71,6.2-6.11a13.43,13.43,0,0,0,1.8-6.1c-.1-2.7-.1-8.6-.1-8.6l1-4.3-6.9-2.2C121.7,279.62,120.6,282.72,120.2,282.92Z" transform="translate(-3.83 -47.11)" style="fill:url(#linear-gradient-13)"/><path id="Right_hand" data-name="Right hand" d="M75.4,265.51a7.56,7.56,0,0,1,2.3,3,9.45,9.45,0,0,1,.3,4.11,12,12,0,0,0,.4,5c.6,1.39.9,1.3.5,1.89a2.18,2.18,0,0,1-3-.6c-.6-1.1-1.6-3-1.6-3a13.44,13.44,0,0,1-1.2,2.4c-.7,1.1-.4,4.4.2,5.5,1.2,2.4,2.5,5.2,2.1,6.2s-2.2-.5-2.2-.5-4.6-4.3-5.5-6.8a12.4,12.4,0,0,1-1.1-6.3c.4-2.7,1.1-8.6,1.1-8.6l-.6-4.3s4.4-1.1,6.7-1.8C74.8,262.72,75.1,265.31,75.4,265.51Z" transform="translate(-3.83 -47.11)" style="fill:url(#linear-gradient-14)"/></g></g></g></svg>