<svg xmlns="http://www.w3.org/2000/svg" xmlns:xlink="http://www.w3.org/1999/xlink" width="395" height="500" viewBox="0 0 395 500"><defs><style>.a{clip-path:url(#p);}.b{fill:url(#a);}.c{fill:url(#b);}.d{fill:url(#c);}.e,.i,.r,.w{fill:none;stroke:#fff;stroke-miterlimit:10;}.e{stroke-width:0.54px;}.f{fill:#004445;}.g{fill:#2c7873;}.h{fill:#f0eff3;}.i{stroke-width:6px;}.j{fill:#fff;}.k{fill:url(#d);}.l{fill:url(#e);}.m{fill:url(#f);}.n{fill:url(#g);}.o{fill:url(#h);}.p{fill:url(#i);}.q{fill:url(#j);}.r,.w{stroke-linecap:round;}.r{stroke-width:0.67px;}.s{fill:url(#k);}.t{fill:url(#l);}.u{fill:url(#m);}.v{fill:url(#n);}.w{stroke-width:0.69px;}</style><linearGradient id="a" y1="0.5" x2="1" y2="0.5" gradientUnits="objectBoundingBox"><stop offset="0" stop-color="#f0f2f5"/><stop offset="0.99" stop-color="#f5f7f8"/><stop offset="1" stop-color="#f5f7f8"/></linearGradient><linearGradient id="b" x1="0.426" y1="0.996" x2="0.568" y2="0.037" gradientUnits="objectBoundingBox"><stop offset="0" stop-color="#411d03"/><stop offset="1" stop-color="#7b3b0c"/></linearGradient><linearGradient id="c" x1="-0.001" y1="0.499" x2="1" y2="0.499" gradientUnits="objectBoundingBox"><stop offset="0" stop-color="#28949c"/><stop offset="0.44" stop-color="#2b979f"/><stop offset="0.89" stop-color="#157178"/><stop offset="1" stop-color="#0b575d"/></linearGradient><linearGradient id="d" x1="0.969" y1="0.712" x2="0.069" y2="0.343" xlink:href="#b"/><linearGradient id="e" x1="0" y1="0.5" x2="1" y2="0.5" xlink:href="#c"/><linearGradient id="f" x1="0.119" y1="0.297" x2="0.762" y2="0.539" xlink:href="#b"/><linearGradient id="g" x1="-0.44" y1="0.575" x2="0.472" y2="0.497" xlink:href="#b"/><linearGradient id="h" x1="0.295" y1="0.548" x2="0.99" y2="0.387" gradientUnits="objectBoundingBox"><stop offset="0" stop-color="#a04400" stop-opacity="0"/><stop offset="0.18" stop-color="#9a4100" stop-opacity="0.141"/><stop offset="0.52" stop-color="#8a3b00" stop-opacity="0.522"/><stop offset="0.9" stop-color="#753200"/></linearGradient><linearGradient id="i" x1="0.957" y1="0.26" x2="0.048" y2="0.979" gradientUnits="objectBoundingBox"><stop offset="0" stop-color="#652e05"/><stop offset="1" stop-color="#461e00"/></linearGradient><linearGradient id="j" x1="0.99" y1="0.363" x2="0.052" y2="0.58" xlink:href="#b"/><linearGradient id="k" x1="-0.24" y1="1.206" x2="0.323" y2="0.239" xlink:href="#c"/><linearGradient id="l" x1="0.383" y1="1.01" x2="0.603" y2="0.006" gradientUnits="objectBoundingBox"><stop offset="0" stop-color="#a04400"/><stop offset="0.3" stop-color="#9c4200"/><stop offset="0.62" stop-color="#8e3d00"/><stop offset="0.95" stop-color="#793300"/><stop offset="1" stop-color="#753200"/></linearGradient><linearGradient id="m" x1="0.913" y1="0.806" x2="0.935" y2="-0.195" xlink:href="#l"/><linearGradient id="n" x1="0.018" y1="0.517" x2="1.035" y2="0.484" xlink:href="#c"/><clipPath id="p"><rect width="395" height="500"/></clipPath></defs><g id="o" class="a"><g transform="translate(-114 38.615)"><path class="b" d="M496.212,223.634C452.406,134.088,389.6,8.853,226.815,8.518c-165.292-.341-113.677,167.359-38.2,219.136,1.946,1.335,15.621,13.813,18.094,15.078,91.561,46.831-158.024,77.427-62.323,136.081,96.871,59.363,270.713,46.178,321.668,0S515.129,262.32,496.212,223.634Z" transform="translate(0.465 -0.001)"/><path class="c" d="M1.139,0,0,7.994l2.707,7.42,2.452,1.377,8.049-4.451,1.409-3.734L11.7.939,1.139,0Z" transform="translate(214.419 346.21)"/><path class="d" d="M22.259.093s4.2,5.725,3.925,8.288,7.412-.1,8.113-4.347,2.5-2.11,3.065.263,2.452,2.389,2.826,4.061a6.454,6.454,0,0,1-3.312,7.795c-4.355,2.524-9.084,1.465-12.572,3.185S17.052,27.1,13.318,27.6,3.469,27.744.579,22.027s5.868-8.806,8.1-9.554,6.369-5.828,8.1-7.962S20.093-.56,22.259.093Z" transform="translate(192.08 350.226)"/><path class="e" d="M33.861,0s2.341,3.185-1.5,6.131S22.532,9,19.18,12.627,13.24,19.793,7.3,19.753,0,18.081,0,18.081" transform="translate(194.944 355.096)"/><rect class="f" width="170.645" height="353.392" rx="16.49" transform="translate(254.061 26.775)"/><rect class="g" width="150.589" height="324.379" rx="12.18" transform="translate(264.092 41.282)"/><path class="f" d="M0,0H73.065A15.279,15.279,0,0,1,57.818,15.279H15.279A15.279,15.279,0,0,1,0,0H0Z" transform="translate(302.85 36.17)"/><path class="f" d="M22.683,4.769l-.8,35.032a10.446,10.446,0,0,1-.2,2.054l-2.524,8.2a16.839,16.839,0,0,1-6.369,1.592c-3.089,0-7.07-1.935-7.07-1.935L3.336,42.986a10.271,10.271,0,0,1-.342-2.142L0,0Z" transform="translate(208.209 297.444)"/><rect class="h" width="42.659" height="13.439" rx="4.2" transform="translate(362.293 60.263)"/><rect class="h" width="50.303" height="14.339" rx="4.2" transform="translate(275.621 86.314)"/><rect class="h" width="42.022" height="5.127" rx="2.564" transform="translate(279.761 64.419)"/><rect class="h" width="119.068" height="179.475" rx="7.07" transform="translate(279.849 109.116)"/><rect class="h" width="119.068" height="31.76" rx="7.07" transform="translate(279.849 305.143)"/><circle class="i" cx="43.615" cy="43.615" r="43.615" transform="translate(295.772 123.057)"/><rect class="j" width="95.533" height="23.24" rx="7.41" transform="translate(291.616 223.209)"/><rect class="j" width="95.533" height="23.24" rx="7.41" transform="translate(291.616 256.003)"/><path class="k" d="M3.615,0A80.2,80.2,0,0,1,0,10.605S8.615,16.7,9.443,17.4c.693-2.771,8.463-2.452,9.355-4.777s-5.04-7.412-4.777-10.263C11.584,2.444,5.032.573,3.615,0Z" transform="translate(236.943 288.758)"/><path class="f" d="M65.634,94.857,11.987,83.6A14.667,14.667,0,0,1,.642,64.889L20.9,11.227,25.212.144S66.868-1.648,69.464,7.421c3.981,13.742,1,33.487-.8,40.382-3.081,11.879-3.5,26.41-3.5,26.41l4.49,1.823a7.19,7.19,0,0,1,1.736.661l4.379,3.813-3.049,13.7-5.287.716a5.254,5.254,0,0,1-1.8-.071Z" transform="translate(167.192 208.2)"/><path class="l" d="M65.422,117.246l-10.661-3.5L65.653,69.626s.8-16.831-.231-24.881c-3.543,28.861-6.035,48.5-6.035,48.5s-3.4.072-7.611.1c-6.059,0-15.04-.35-22.787-2.389-7.962-2.1-16.935-4.642-16.935-4.642l-2.5,10.2L0,99.427S5.637,19.419,23.75,4.953C29.777.175,40.47-.891,45.167.669S73.161,7.835,77.755,13.711c7.269,9.26,3.344,50.159,2.428,58.678a13.909,13.909,0,0,1-.653,3.01Z" transform="translate(179.395 126.696)"/><path class="m" d="M1.9,5.866C2.914,4.664,4.674,1.129,5.374.078,3.432-.432.685,1.67,0,3.326.51,3.461,1.529,5.293,1.9,5.866Z" transform="translate(247.014 101.443)"/><path class="n" d="M15.549,52.366a7.166,7.166,0,0,1-5.685-6.529,10.446,10.446,0,0,1,.43-2.675l.231-.947.2-.876.247-1.075a13.066,13.066,0,0,1-1.449-.494c-3.718-1.5-9.164-5.5-9.506-12.2C-.224,22.9,2.4,19.316,3.1,16.777s.111-4.618.382-7.588c.342-3.806,2.986-8,5.064-8.615C17.889-2.22,31.377,6.092,31.377,6.092s4.347,3.439-.239,13.169c.6-.207-.963,1.7-.239,1.736a4.49,4.49,0,0,1,3.36,1.521c1.481,1.9.605,5.382-4.26,9.236a1.378,1.378,0,0,1-.167.135,23.511,23.511,0,0,0-.924,2.866,2.179,2.179,0,0,1-.127.454c-.47,1.791-1.091,4.108-1.68,6.369-.852,3.24-1.457,6.059-1.712,7.166C24.761,51.339,21.122,53.64,15.549,52.366Z" transform="translate(214.547 82.985)"/><path class="o" d="M25.518,19.261c4.578-9.729.231-13.169.231-13.169S12.261-2.22,2.914.574C1.449,1,.725,2.963,0,4.555,3.9,2.812,10.159,5.574,15.279,7.079c2.444.725.645,3.073,1.306,3.376,5.732.446,8.607,4.148,5.573,11.616l3.025-1.083C24.658,20.829,26.083,19.062,25.518,19.261Z" transform="translate(220.167 82.961)"/><path class="f" d="M33.288,26.262a25.478,25.478,0,0,0,1.656-6.417c.987-5.9-1.7-9.65-6.959-13l-5.143-2.85c-.47-.263-9.26-4.65-14.5-3.909C6.377.363,3.368,1.772,2.771,3.269,1.25,7.146.318,9.176,0,12.473c5.1-7.166,5.494,3.83,18.678-.143,2.444-.732.653,3.073,1.306,3.376,6.465.51,9.307,5.143,4.156,14.674,1.847-.263,3.185-.8,4.124-.533C29.976,28.93,32.874,27.154,33.288,26.262Z" transform="translate(219.554 74.757)"/><path class="p" d="M19.26,3.455A23.336,23.336,0,0,1,1,10.462l.2-.876.247-1.075A13.065,13.065,0,0,1,0,8.018C3.925,6.72,14.889,2.978,20.478,0a1.377,1.377,0,0,1-.167.135A23.511,23.511,0,0,0,19.387,3C19.347,3.121,19.3,3.3,19.26,3.455Z" transform="translate(224.061 114.713)"/><path class="f" d="M30.678,2.412c.255-.127,1.011-.4,1.011-.4L32.024,0l-3.3.661A1.7,1.7,0,0,0,27.406,1.9L25.59,8.79C21.084,9.514,10.28,12.476,8.624,12.1c-2.1-.478-1.744-3.185-3.041-3.073S3.831,10.7,3.1,10.4A12.158,12.158,0,0,1,.463,6.242S.025,10.932,0,11.775c-.064,1.959,2.221,6.911,2.221,6.911a1.879,1.879,0,0,0,1.234,1.091l4.873,1.354,2.93-.486c4.021-.533,14.586-4.777,15.024-5.8C28.871,9.013,28.083,3.678,30.678,2.412Z" transform="translate(214.218 102.723)"/><path class="q" d="M0,.64S1.847-.9,2.452.792.908,4.534.908,4.534Z" transform="translate(244.96 106.653)"/><path class="r" d="M0,0A9.96,9.96,0,0,0,7.962,9.554C16,11.4,20.74,4.777,20.74,4.777" transform="translate(221.728 128.264)"/><path class="s" d="M13.161,0C5.4,4.912,0,50.446,0,50.446l7.962,2.221S8.384,24.419,13.161,0Z" transform="translate(191.457 162.564)"/><path class="t" d="M5.184,3.28A6.688,6.688,0,0,0,2.6,5.987a10.223,10.223,0,0,0-.8,4.029,11.683,11.683,0,0,1-.939,4.9c-.748,1.314-1.091,1.2-.717,1.879s2.293.8,3.041-.231,1.967-2.818,1.967-2.818a15.056,15.056,0,0,0,.924,2.54c.549,1.146-.143,4.4-.844,5.462-1.473,2.229-3.025,4.928-2.834,5.963s2.261-.271,2.261-.271S9.715,23.7,10.853,21.3a12.812,12.812,0,0,0,1.768-6.139c-.08-2.691-.127-8.646-.127-8.646L13.52,2.245,6.641,0S5.543,3.121,5.184,3.28Z" transform="translate(229.027 240.971)"/><path class="u" d="M8.809,3.726a6.728,6.728,0,0,1,2.269,2.986A10.35,10.35,0,0,1,11.4,10.8a11.728,11.728,0,0,0,.39,4.976c.6,1.393.947,1.314.494,1.943S9.9,18.24,9.295,17.15s-1.632-3.018-1.632-3.018a15.334,15.334,0,0,1-1.21,2.389c-.677,1.083-.35,4.387.231,5.525,1.218,2.389,2.452,5.239,2.15,6.242s-2.221-.525-2.221-.525S2.018,23.5,1.158,20.971a12.614,12.614,0,0,1-1.067-6.3c.39-2.667,1.091-8.559,1.091-8.559L.624,1.847S5,.788,7.336,0C8.148.955,8.475,3.551,8.809,3.726Z" transform="translate(180.618 223.185)"/><path class="v" d="M9.057,33.041s-.462,5.334.51,7.221A3.938,3.938,0,0,0,13.683,42.4c1.576-.064,3.615-2.03,5.159-8.758a196.131,196.131,0,0,0,3.32-20.916A36.863,36.863,0,0,0,21.9,3.885,3.981,3.981,0,0,0,18.4.7,11.7,11.7,0,0,1,16.47.31c-1.17-.382-2.428,0-3.384-.223S5.856-.048,5.172,1.8,10.18,5.78,10.259,9.713s-4.713,5-4.713,5S3.611,13.12,2.56,14.235s-2.15.135-2.516.979S1.7,18.622,1.7,18.622s4.857,8.455,6.8,11.768A9.936,9.936,0,0,1,9.057,33.041Z" transform="translate(238.602 287.023)"/><path class="w" d="M0,38.424C5.048,26.059,3.424,12.715,3.424,12.715,3.806,8.869,5.812,4.809,2.309.4L2.03,0" transform="translate(253.256 288.487)"/></g></g></svg>